<svg width="1440" height="1024" viewBox="0 0 1440 1024" fill="none" xmlns="http://www.w3.org/2000/svg">
<rect width="1440" height="1024" fill="white"/>
<path d="M207.316 433.715C207.316 433.715 207.349 433.715 207.414 433.715C194.003 460.798 186.678 475.609 185.441 478.148C172.486 504.32 165.65 518.122 164.934 519.555L149.309 551.098C148.853 550.512 146.672 547.126 142.766 540.941C136.32 529.613 133.098 517.829 133.098 505.59V504.711C133.098 492.992 136.06 481.697 141.984 470.824C149.862 456.762 161.288 446.443 176.262 439.867C178.671 438.891 181.372 437.947 184.367 437.035C186.581 436.384 189.348 435.766 192.668 435.18C194.947 434.789 199.829 434.301 207.316 433.715ZM222.062 436.352C229.224 438.63 234.888 441.007 239.055 443.48C241.789 444.978 244.816 446.996 248.137 449.535C249.829 450.837 252.303 453.083 255.559 456.273C258.944 460.049 261.451 463.174 263.078 465.648C265.682 469.685 267.603 473.201 268.84 476.195C269.816 478.344 270.728 480.655 271.574 483.129C265.845 485.017 262.46 486.124 261.418 486.449C260.311 483.324 259.042 480.297 257.609 477.367C255.786 473.917 253.28 470.206 250.09 466.234C247.225 463.044 244.751 460.635 242.668 459.008C239.478 456.404 236.776 454.483 234.562 453.246C231.828 451.684 229.452 450.512 227.434 449.73C226.978 450.642 221.509 461.775 211.027 483.129C197.095 511.254 189.934 525.707 189.543 526.488L174.309 557.445C183.684 562.654 193.612 565.258 204.094 565.258C216.333 565.258 227.727 561.71 238.273 554.613C240.422 553.181 243.091 550.967 246.281 547.973C249.146 545.043 251.197 542.699 252.434 540.941C253.996 538.858 255.461 536.612 256.828 534.203C258.26 531.599 259.497 528.897 260.539 526.098C260.539 526.033 260.572 526 260.637 526C261.418 526.26 264.738 527.497 270.598 529.711C269.491 532.771 268.189 535.701 266.691 538.5C264.803 542.146 262.199 546.052 258.879 550.219C257.447 551.846 255.656 553.767 253.508 555.98C249.862 559.301 247.03 561.645 245.012 563.012C242.342 564.835 239.803 566.365 237.395 567.602C226.783 573.201 215.812 576 204.484 576H203.605C192.277 576 181.307 573.233 170.695 567.699C168.221 566.397 164.803 564.249 160.441 561.254C166.236 549.535 173.885 534.04 183.391 514.77C197.323 486.514 204.484 472.029 204.875 471.312C215.617 449.503 221.346 437.849 222.062 436.352ZM143.84 505.102C143.84 513.044 145.402 520.824 148.527 528.441C149.309 527.009 151.848 521.866 156.145 513.012C156.991 511.449 163.859 497.615 176.75 471.508C184.432 455.948 188.469 447.745 188.859 446.898C185.344 447.875 182.251 448.949 179.582 450.121C165.715 456.632 155.591 466.723 149.211 480.395C145.63 488.402 143.84 496.638 143.84 505.102ZM363.957 434.984C363.957 435.049 358.716 445.629 348.234 466.723C347.714 467.829 341.626 480.167 329.973 503.734C317.928 528.083 311.288 541.462 310.051 543.871C308.618 546.996 307.382 549.47 306.34 551.293C302.434 545.238 299.927 541.234 298.82 539.281C293.156 528.669 290.324 517.634 290.324 506.176V505.492C290.324 492.667 293.775 480.525 300.676 469.066C302.303 466.332 304.549 463.272 307.414 459.887C309.562 457.348 312.134 454.776 315.129 452.172C322.551 446.052 330.526 441.625 339.055 438.891C341.529 438.044 344.784 437.263 348.82 436.547C350.839 436.091 355.884 435.57 363.957 434.984ZM378.508 437.621C385.279 439.704 390.65 441.918 394.621 444.262C397.03 445.499 399.667 447.191 402.531 449.34C404.484 450.642 406.828 452.628 409.562 455.297C413.013 458.747 415.259 461.221 416.301 462.719C418.97 466.299 420.923 469.262 422.16 471.605C423.853 474.535 425.448 478.083 426.945 482.25C429.68 489.932 431.047 497.615 431.047 505.297V506.176C431.047 518.025 427.987 529.418 421.867 540.355C420.24 543.285 418.026 546.508 415.227 550.023C411.906 554.06 408.423 557.543 404.777 560.473C402.043 562.621 399.634 564.314 397.551 565.551C385.962 572.517 373.82 576 361.125 576H360.148C348.299 576 336.874 572.973 325.871 566.918C323.918 565.746 321.118 563.923 317.473 561.449V561.352C319.556 557.12 326.815 542.374 339.25 517.113C353.703 487.882 360.962 473.168 361.027 472.973C362.004 471.085 367.668 459.594 378.02 438.5C378.28 437.914 378.443 437.621 378.508 437.621ZM300.969 505.688V505.883C300.969 513.695 302.499 521.378 305.559 528.93C305.949 528.279 312.72 514.672 325.871 488.109C337.72 464.086 344.296 450.772 345.598 448.168V448.07C343.319 448.656 341.073 449.372 338.859 450.219C325.383 455.753 315.096 464.932 308 477.758C303.312 486.677 300.969 495.987 300.969 505.688ZM383.879 450.805C372.941 472.94 364.152 490.746 357.512 504.223C342.473 534.757 334.432 551.065 333.391 553.148L331.145 557.641C332.642 558.487 334.66 559.496 337.199 560.668C344.882 563.793 352.466 565.355 359.953 565.355H361.516C369.914 565.355 378.378 563.337 386.906 559.301C389.966 557.803 393.254 555.785 396.77 553.246C398.527 551.879 400.383 550.251 402.336 548.363C404.875 545.824 406.665 543.871 407.707 542.504C410.181 539.184 411.971 536.449 413.078 534.301C417.961 525.382 420.402 515.909 420.402 505.883V505.59C420.402 493.155 416.659 481.599 409.172 470.922C407.87 469.034 405.949 466.755 403.41 464.086C400.611 461.286 398.332 459.301 396.574 458.129C393.319 455.72 390.227 453.799 387.297 452.367C385.669 451.586 384.53 451.065 383.879 450.805ZM510.441 432.055H510.539C510.995 432.901 514.217 439.477 520.207 451.781C528.41 468.513 532.577 477.042 532.707 477.367H532.805L549.309 443.48C552.694 436.579 554.582 432.771 554.973 432.055H555.07L574.699 472.289C593.514 510.766 603.02 530.264 603.215 530.785C603.866 531.957 611.255 546.996 625.383 575.902L625.285 576H440.227L440.129 575.902C458.228 538.923 467.668 519.652 468.449 518.09C468.449 518.025 476.848 500.837 493.645 466.527C504.452 444.392 510.051 432.901 510.441 432.055ZM456.73 565.648H489.641L512.883 518.09C521.542 500.447 526.229 490.844 526.945 489.281L510.539 455.688C509.823 457.055 502.108 472.842 487.395 503.051C469.751 539.053 460.539 557.868 459.758 559.496L456.73 565.648ZM554.973 455.688C544.1 477.888 538.632 489.086 538.566 489.281C555.884 524.763 564.901 543.188 565.617 544.555L575.871 565.648H608.781C590.161 527.562 580.461 507.771 579.68 506.273C579.68 506.208 577.954 502.628 574.504 495.531C562.134 470.271 555.624 456.99 554.973 455.688ZM532.707 501.098C532.577 501.488 524.569 517.927 508.684 550.414C504.126 559.659 501.652 564.737 501.262 565.648H564.25V565.551L535.246 506.273C533.618 502.953 532.805 501.228 532.805 501.098H532.707ZM648.82 435.18H691.105C691.171 435.18 691.203 435.212 691.203 435.277V445.727C691.203 445.792 691.171 445.824 691.105 445.824H675.285V499.242H691.105C691.171 499.242 691.203 499.275 691.203 499.34V509.887C691.203 509.887 691.171 509.887 691.105 509.887H675.285V565.355H691.105C691.171 565.355 691.203 565.388 691.203 565.453V575.902C691.203 575.967 691.171 576 691.105 576H648.82C648.755 576 648.723 575.967 648.723 575.902V565.453C648.723 565.388 648.755 565.355 648.82 565.355H664.641V509.887H648.82C648.755 509.887 648.723 509.887 648.723 509.887V499.34C648.723 499.275 648.755 499.242 648.82 499.242H664.641V445.824H648.82C648.755 445.824 648.723 445.792 648.723 445.727V435.277C648.723 435.212 648.755 435.18 648.82 435.18ZM787.199 433.715C787.199 433.715 787.232 433.715 787.297 433.715C773.885 460.798 766.561 475.609 765.324 478.148C752.368 504.32 745.533 518.122 744.816 519.555L729.191 551.098C728.736 550.512 726.555 547.126 722.648 540.941C716.203 529.613 712.98 517.829 712.98 505.59V504.711C712.98 492.992 715.943 481.697 721.867 470.824C729.745 456.762 741.171 446.443 756.145 439.867C758.553 438.891 761.255 437.947 764.25 437.035C766.464 436.384 769.23 435.766 772.551 435.18C774.829 434.789 779.712 434.301 787.199 433.715ZM801.945 436.352C809.107 438.63 814.771 441.007 818.938 443.48C821.672 444.978 824.699 446.996 828.02 449.535C829.712 450.837 832.186 453.083 835.441 456.273C838.827 460.049 841.333 463.174 842.961 465.648C845.565 469.685 847.486 473.201 848.723 476.195C849.699 478.344 850.611 480.655 851.457 483.129C845.728 485.017 842.342 486.124 841.301 486.449C840.194 483.324 838.924 480.297 837.492 477.367C835.669 473.917 833.163 470.206 829.973 466.234C827.108 463.044 824.634 460.635 822.551 459.008C819.361 456.404 816.659 454.483 814.445 453.246C811.711 451.684 809.335 450.512 807.316 449.73C806.861 450.642 801.392 461.775 790.91 483.129C776.978 511.254 769.816 525.707 769.426 526.488L754.191 557.445C763.566 562.654 773.495 565.258 783.977 565.258C796.216 565.258 807.609 561.71 818.156 554.613C820.305 553.181 822.974 550.967 826.164 547.973C829.029 545.043 831.079 542.699 832.316 540.941C833.879 538.858 835.344 536.612 836.711 534.203C838.143 531.599 839.38 528.897 840.422 526.098C840.422 526.033 840.454 526 840.52 526C841.301 526.26 844.621 527.497 850.48 529.711C849.374 532.771 848.072 535.701 846.574 538.5C844.686 542.146 842.082 546.052 838.762 550.219C837.329 551.846 835.539 553.767 833.391 555.98C829.745 559.301 826.913 561.645 824.895 563.012C822.225 564.835 819.686 566.365 817.277 567.602C806.665 573.201 795.695 576 784.367 576H783.488C772.16 576 761.19 573.233 750.578 567.699C748.104 566.397 744.686 564.249 740.324 561.254C746.118 549.535 753.768 534.04 763.273 514.77C777.206 486.514 784.367 472.029 784.758 471.312C795.5 449.503 801.229 437.849 801.945 436.352ZM723.723 505.102C723.723 513.044 725.285 520.824 728.41 528.441C729.191 527.009 731.73 521.866 736.027 513.012C736.874 511.449 743.742 497.615 756.633 471.508C764.315 455.948 768.352 447.745 768.742 446.898C765.227 447.875 762.134 448.949 759.465 450.121C745.598 456.632 735.474 466.723 729.094 480.395C725.513 488.402 723.723 496.638 723.723 505.102ZM870.305 434.398H880.852C880.917 434.398 880.949 434.431 880.949 434.496V475.121C880.949 475.121 893.612 480.85 918.938 492.309L928.996 496.898C958.163 483.682 973.137 476.911 973.918 476.586L977.043 475.121V434.496C977.043 434.431 977.076 434.398 977.141 434.398H987.688C987.753 434.398 987.785 434.431 987.785 434.496V481.957C987.525 482.152 982.186 484.594 971.77 489.281L931.828 507.348C930.135 508.129 929.191 508.552 928.996 508.617C900.415 495.661 885.897 489.086 885.441 488.891L870.207 482.055V434.496C870.207 434.431 870.24 434.398 870.305 434.398ZM870.305 495.727C898.951 507.445 913.404 513.37 913.664 513.5C913.99 513.63 919.1 515.714 928.996 519.75C958.553 507.641 973.951 501.358 975.188 500.902C975.253 500.837 979.452 499.112 987.785 495.727V495.824V575.902C987.785 575.967 987.753 576 987.688 576H977.141C977.076 576 977.043 575.967 977.043 575.902V511.645C948.267 523.363 933.846 529.255 933.781 529.32C933.26 529.516 931.665 530.167 928.996 531.273C902.238 520.401 888.241 514.672 887.004 514.086C886.939 514.086 884.921 513.272 880.949 511.645V575.902C880.949 575.967 880.917 576 880.852 576H870.305C870.24 576 870.207 575.967 870.207 575.902V495.824C870.207 495.759 870.24 495.727 870.305 495.727ZM1084.86 433.031H1084.95C1084.95 433.161 1090.78 445.108 1102.43 468.871C1115.26 495.108 1121.8 508.487 1122.06 509.008C1122.45 509.724 1128.77 522.68 1141.01 547.875L1154.78 576H1099.89C1099.83 576 1099.24 574.828 1098.14 572.484C1097.75 571.768 1091.17 558.357 1078.41 532.25C1066.04 506.924 1059.27 493.057 1058.1 490.648C1058.03 490.518 1057.77 490.03 1057.32 489.184C1070.73 461.84 1077.73 447.549 1078.31 446.312C1078.31 446.312 1079.88 443.122 1083 436.742C1084.24 434.333 1084.86 433.096 1084.86 433.031ZM1084.86 456.469C1084.46 457.25 1079.13 468.155 1068.84 489.184C1083.36 518.871 1090.75 534.008 1091.01 534.594L1106.14 565.453C1106.21 565.648 1106.27 565.746 1106.34 565.746H1138.27V565.648C1123.95 536.352 1116.5 521.085 1115.91 519.848C1103.02 493.546 1096.25 479.743 1095.6 478.441L1084.86 456.469ZM1049.5 505.395L1065.62 538.207C1066.27 539.509 1072.42 552.107 1084.07 576H1083.98H1015.03H1014.93C1027.76 549.698 1034.4 536.124 1034.86 535.277L1048.92 506.469C1049.24 505.753 1049.44 505.395 1049.5 505.395ZM1049.5 528.832L1031.93 564.867C1031.86 564.932 1031.7 565.225 1031.44 565.746H1067.57C1055.59 541.267 1049.57 528.962 1049.5 528.832ZM1165.42 435.082H1202.24C1209.66 435.082 1216.72 437.361 1223.43 441.918C1224.86 442.829 1226.65 444.359 1228.8 446.508C1230.82 448.591 1232.19 450.219 1232.9 451.391C1234.4 453.669 1235.64 455.98 1236.61 458.324C1238.5 463.012 1239.45 467.602 1239.45 472.094V473.266C1239.45 479.971 1237.49 486.547 1233.59 492.992C1232.61 494.555 1231.24 496.312 1229.48 498.266C1227.14 500.609 1225.55 502.074 1224.7 502.66C1223.59 503.507 1222.23 504.451 1220.6 505.492C1239.09 524.177 1248.89 534.105 1249.99 535.277C1250.97 536.254 1259.95 545.368 1276.95 562.621L1290.03 576H1275.29C1254.19 554.646 1242.08 542.374 1238.96 539.184C1220.66 520.629 1211.26 511.091 1210.73 510.57H1175.97V575.902C1175.97 575.967 1175.94 576 1175.87 576H1165.42C1165.36 576 1165.32 575.967 1165.32 575.902V435.18C1165.32 435.115 1165.36 435.082 1165.42 435.082ZM1175.97 445.727V499.926H1201.26C1208.75 499.926 1215.23 497.322 1220.7 492.113C1222.58 490.095 1223.89 488.467 1224.6 487.23C1227.47 482.738 1228.9 477.888 1228.9 472.68C1228.9 466.365 1226.78 460.603 1222.55 455.395C1220.66 453.311 1219.3 451.977 1218.45 451.391C1213.44 447.615 1207.87 445.727 1201.75 445.727H1175.97Z" fill="black"/>
</svg>
