<svg width="1440" height="1024" viewBox="0 0 1440 1024" fill="none" xmlns="http://www.w3.org/2000/svg">
<style>

.letter{
    fill:black;
}
.clip{
    fill :black;
}
@media (prefers-color-scheme: dark) {

.letter{
    fill:white;
}
.clip{
    fill :white;
}
    }

</style>
<g clip-path="url(#clip0)">

<path class="letter" fill-rule="evenodd" clip-rule="evenodd" d="M873.436 49.1989C846.125 49.1989 812.605 55.4898 772.878 68.0716C712.593 87.9815 676.728 101.186 665.281 107.684V108.513C670.936 108.513 673.763 110.587 673.764 114.735L668.798 128.008C663.693 151.788 656.175 176.468 646.245 202.047L663.212 218.018C679.736 224.35 696.763 229.276 714.113 232.743C762.945 236.475 792.948 240.623 804.121 245.186C809.227 246.016 811.778 247.398 811.776 249.331L822.536 250.161H826.672C826.672 252.513 823.156 257.145 816.122 264.056C722.596 336.228 671.833 375.771 663.832 382.685C648.656 393.055 637.828 402.802 631.346 411.927V412.756C641.139 403.771 648.657 398.379 653.9 396.582H655.97V397.411C654.589 397.411 650.589 400.384 643.969 406.329L615 442L633.416 431.423C727.492 391.743 795.913 357.799 838.68 329.594C853.298 322.267 883.093 297.172 928.064 254.31V253.688L915.236 257.834H914.408L917.304 254.308C947.93 230.665 966.829 215.526 974 208.889V208.267C960.067 205.503 932.478 203.429 891.234 202.045L761.494 204.119L726.942 202.667C724.32 200.043 717.423 197.485 706.25 194.994L717.63 183.794L717.01 179.024C717.01 173.772 722.389 161.398 733.147 141.901H733.975V142.731L730.457 156.626V157.249C734.871 155.728 738.664 152.271 741.838 146.879C743.768 145.083 755.976 141.35 778.463 135.68C799.572 128.768 835.023 121.993 884.818 115.355H885.435V116.185C877.847 118.398 868.676 124.413 857.92 134.228C859.297 134.228 863.021 132.638 869.094 129.458C868.538 132.64 864.538 138.931 857.093 148.33H857.92C864.828 143.446 872.17 139.211 879.854 135.68C925.784 120.057 951.232 108.443 956.2 100.838V99.3895C951.515 99.3895 949.171 92.8911 949.169 79.8943V70.7681C946.146 61.8733 942.336 53.2668 937.785 45.0514L936.544 46.2957V52.7245C936.544 60.6077 937.441 64.5481 939.236 64.5459L932.822 69.3159L930.13 68.6934C898.544 48.2334 877.027 38.0023 865.577 38H864.953V38.6218C870.608 44.4286 873.436 47.9543 873.436 49.1989V49.1989ZM942.133 63.7161V64.5459H940.689V63.7168H942.133V63.7161Z"/>
<path class="letter" fill-rule="evenodd" clip-rule="evenodd" d="M505.514 266.623V267.45L466.112 278.418V279.246C466.112 280.626 471.573 281.592 482.495 282.143V282.971L464.66 288.765V289.593L466.941 292.49C471.919 292.49 474.407 298.905 474.407 311.736L472.126 328.085C459.82 368.784 453.667 393.686 453.669 402.792C453.669 417.418 449.176 438.388 440.19 465.704C444.198 469.843 449.935 474.05 457.402 478.327C458.368 478.327 458.852 477.085 458.854 474.602H459.476V476.051C459.476 501.712 453.808 536.479 442.471 580.351C436.11 607.946 430.925 638.987 426.918 673.477V674.305H427.539L452.011 623.396C480.214 573.866 500.054 537.858 511.528 515.371C512.772 515.371 517.197 519.509 524.801 527.787C537.38 544.207 555.906 563.453 580.379 585.525L536.622 580.351V581.177C552.448 594.355 569.299 606.258 587.015 616.771C647.706 653.194 692.708 677.82 722.02 690.651V689.823C705.151 660.711 679.228 620.081 644.252 567.932C637.062 555.793 623.167 540.686 602.568 522.611C628.42 528.544 645.01 534.477 652.34 540.408V538.96C645.84 530.958 637.199 524.335 626.418 519.091C616.185 515.644 590.953 498.329 550.724 467.147V466.526L557.36 464.249C575.745 457.766 654.618 427.208 793.977 372.573V371.745C792.183 369.54 789.488 367.539 785.891 365.744V365.128H786.516C791.354 365.542 800.754 367.75 814.717 371.751H817V370.923L799.162 352.504C783.954 344.227 774.345 338.087 770.336 334.086H770.961C777.736 338.503 782.16 340.711 784.232 340.708H785.061L785.891 339.881C785.891 337.398 780.153 334.225 768.678 330.362L766.605 330.982C761.903 326.844 743.584 316.773 711.65 300.768L667.892 282.971H667.063C677.292 294.974 684.758 304.562 689.46 311.736V312.564L666.441 295.594C666.441 296.975 673.838 308.564 688.631 330.362V331.81C679.229 335.674 674.528 338.157 674.528 339.26L687.178 336.156C662.014 358.37 641 374.443 624.135 384.374C585.699 403.415 551.067 424.592 520.239 447.907C520.239 437.145 530.677 408.517 551.553 362.024C567.865 335.813 576.022 318.361 576.024 309.667C576.024 307.875 582.937 299.459 596.762 284.42V283.592L576.648 282.971H570.012V282.143L581.836 278.418V276.349L581.214 275.521C567.527 274.005 540.776 268.831 500.959 260V260.828L505.514 266.623ZM418 700.173V701H418.83C420.624 701 422.836 694.585 425.465 681.754V680.306C420.903 688.443 418.415 695.066 418 700.175V700.173Z"/>
<path class="letter" fill-rule="evenodd" clip-rule="evenodd" d="M761.839 615.451H763.082V614H761.839V615.451ZM759.142 616.073H760.385V614.622H759.142V616.073ZM750.23 620.014H749.605L750.848 618.148C740.207 620.36 720.102 623.539 690.532 627.685H689.081V626.856L700.069 625.611V624.159C678.922 626.926 633.663 630.312 564.293 634.318V635.77H585.229L589.996 635.148C597.044 636.67 600.914 637.983 601.605 639.088C604.228 640.472 619.36 643.859 647 649.248C653.355 649.248 656.534 651.321 656.535 655.467C673.118 670.395 692.603 680.554 714.991 685.945C716.234 685.945 717.34 689.815 718.307 697.556L715.612 718.702H714.991V713.105H713.54C711.403 722.334 709.811 731.68 708.772 741.096L710.223 751.252H711.467V748.562H712.295V753.949H710.844C706.284 781.043 702.691 797.561 700.065 803.503V804.122H701.309L702.138 803.503C702.138 802.124 702.552 801.431 703.382 801.431C703.382 809.305 696.403 819.741 682.446 832.737C657.432 850.843 628.412 875.031 595.385 905.302L583.986 916.909L583.157 913.594V911.522C588.132 871.853 590.619 840.615 590.619 817.808V813.657H589.376C582.878 831.627 576.107 844.551 569.062 852.43C574.036 837.089 576.524 826.24 576.524 819.881H575.073L574.451 823.196C566.708 842.551 562.839 855.199 562.843 861.139H563.465C564.43 861.139 564.915 860.514 564.915 859.271H565.538V859.896L561.394 868.599C540.666 908.825 528.229 937.162 524.083 953.61C520.766 975.445 518.072 988.367 516 992.375L516.622 993L581.088 959.622H581.918V960.451C580.119 960.451 577.148 962.731 573.004 967.292C603.268 949.323 636.78 926.654 673.539 899.286C727.848 856.159 756.178 828.307 758.529 815.729C757.11 813.976 756.372 811.768 756.451 809.513V804.955C762.394 770.537 765.987 753.328 767.23 753.328L769.302 762.656H770.552C770.552 745.516 774.904 709.578 783.607 654.844C784.986 628.999 786.783 616.076 789 616.073V614.622L750.23 620.014ZM687.836 627.684V628.309H685.763V627.684H687.836ZM522.006 635.769H545.222V634.317H522.006V635.769ZM660.061 651.32V651.941H658.61V651.32H660.061ZM661.305 651.941C689.357 659.406 703.383 664.658 703.385 667.699L660.683 652.771V651.941H661.305ZM696.544 810.342H697.373V808.888H696.544V810.342ZM679.754 831.28V832.109C686.937 824.786 692.326 818.221 695.92 812.414V810.967C694.951 811.246 689.562 818.017 679.754 831.28ZM599.536 946.768C596.633 949.805 593.939 951.877 591.453 952.985L598.915 946.768H599.537H599.536Z"/>
<path class="clip" d="M499 670.5L510.5 615H578L643.5 655L632 670.5L578 688L499 670.5Z"/>
</g>
<defs>
<clipPath id="clip0">
<rect width="1440" height="1024" fill="white"/>
</clipPath>
</defs>
</svg>
